# xmcd
#
# Track frame offsets:
#	150
#	19548
#	38064
#	54847
#	69866
#	93539
#	115043
#	134943
#	154698
#	174175
#	191030
#	209944
#	226306
#	244932
#	265370
#	281352
#	300389
#
# Disc length: 4384 seconds
#
# Revision: 0
# Processed by: cddbd v1.5.1PL2 Copyright (c) Steve Scherf et al.
# Submitted via: dBpowerAMP V4.0
#
DISCID=e9111e11
DTITLE=Yahir - No te apartes de mi
DYEAR=2006
DGENRE=Pop
TTITLE0=Amada amante
TTITLE1=No te apartes de mí
TTITLE2=Un gato en la obscuridad
TTITLE3=No me voy a quedar
TTITLE4=Detalles
TTITLE5=La paz de tu sonrisa
TTITLE6=Sabores
TTITLE7=La distancia
TTITLE8=Propuesta
TTITLE9=Si tú piensas
TTITLE10=Fuerza extraña
TTITLE11=Qué será de ti
TTITLE12=No te apartes de mí (Acoustic version)
TTITLE13=Amiga
TTITLE14=No me voy a quedar
TTITLE15=Amigo
TTITLE16=Jesús Cristo
EXTD=CL -> Kal-El
EXTT0=
EXTT1=
EXTT2=
EXTT3=
EXTT4=
EXTT5=
EXTT6=
EXTT7=
EXTT8=
EXTT9=
EXTT10=
EXTT11=
EXTT12=
EXTT13=
EXTT14=
EXTT15=
EXTT16=
PLAYORDER=
